<?xml version="1.0" standalone="no"?>
<!DOCTYPE svg PUBLIC "-//W3C//DTD SVG 20010904//EN"
 "http://www.w3.org/TR/2001/REC-SVG-20010904/DTD/svg10.dtd">
<svg version="1.0" xmlns="http://www.w3.org/2000/svg"
 width="256.000000pt" height="256.000000pt" viewBox="0 0 256.000000 256.000000"
 preserveAspectRatio="xMidYMid meet">
<metadata>
Created by potrace 1.14, written by Peter Selinger 2001-2017
</metadata>
<g transform="translate(0.000000,256.000000) scale(0.100000,-0.100000)"
fill="#000000" stroke="none">
<path d="M712 2349 c-75 -37 -176 -167 -262 -336 -27 -54 -59 -98 -106 -143
-159 -157 -291 -378 -319 -540 -3 -19 -8 -37 -11 -42 -3 -4 -7 -60 -10 -124
-11 -280 102 -545 302 -711 105 -87 272 -170 419 -207 69 -17 240 -43 335 -51
134 -10 419 -5 525 9 22 3 63 8 90 12 210 24 440 120 588 244 140 117 251 320
285 520 11 70 7 270 -7 325 -7 28 -14 57 -16 65 -22 104 -103 256 -209 393
-20 27 -126 136 -145 150 -9 6 -31 41 -50 77 -95 185 -196 318 -270 357 -107
56 -195 21 -359 -144 l-113 -114 -99 -1 -99 0 -113 114 c-162 164 -248 200
-356 147z m127 -135 c37 -18 144 -121 219 -209 l51 -60 171 0 171 0 32 36 c18
20 57 64 87 99 75 87 166 153 198 145 28 -7 92 -63 92 -81 0 -7 4 -14 9 -16
11 -4 78 -114 127 -209 28 -54 63 -98 129 -164 78 -78 129 -143 197 -256 24
-38 77 -195 85 -248 12 -84 6 -234 -12 -306 -29 -116 -96 -243 -168 -316 -84
-88 -110 -107 -218 -167 -51 -28 -209 -79 -299 -96 -214 -41 -641 -43 -840 -5
-242 46 -400 123 -527 256 -214 223 -259 571 -112 865 52 103 114 186 218 288
51 49 88 97 110 140 89 175 196 320 234 320 7 0 28 -7 46 -16z"/>
<path d="M745 1988 c-9 -24 -25 -64 -35 -89 l-19 -46 67 14 c37 7 76 16 87 18
11 2 21 4 23 4 3 1 -77 110 -98 134 -4 5 -15 -11 -25 -35z"/>
<path d="M1748 1967 c-45 -61 -53 -80 -33 -84 6 -1 42 -8 82 -16 l72 -14 -15
36 c-9 20 -25 59 -36 86 -11 28 -21 51 -22 52 -1 2 -23 -25 -48 -60z"/>
<path d="M803 1465 c-86 -37 -96 -167 -16 -216 65 -41 148 -21 180 42 7 13 13
43 13 67 0 85 -95 143 -177 107z"/>
<path d="M1654 1466 c-17 -8 -41 -27 -53 -42 -31 -39 -26 -122 9 -159 72 -76
202 -36 216 67 14 101 -79 173 -172 134z"/>
<path d="M1194 1112 c-33 -2 -44 -8 -53 -28 -17 -38 -15 -44 40 -94 49 -45 51
-49 51 -101 2 -106 -36 -163 -116 -178 -23 -4 -49 -7 -57 -6 -119 16 -115 17
-127 -9 -15 -33 2 -54 53 -63 109 -20 226 8 272 65 l22 27 25 -25 c42 -42 52
-48 102 -63 74 -22 207 -9 223 21 9 19 4 43 -13 54 -9 6 -56 4 -136 -7 -27 -4
-85 16 -107 37 -34 32 -49 91 -44 175 0 12 22 41 47 66 50 48 63 86 36 110
-17 15 -133 25 -218 19z"/>
<path d="M403 1033 c-20 -7 -16 -43 5 -45 34 -3 69 -6 157 -13 141 -12 144
-12 248 -20 l97 -7 0 25 c0 13 -6 24 -12 24 -25 1 -203 14 -233 18 -16 2 -77
6 -135 10 -58 4 -107 8 -110 10 -3 1 -11 0 -17 -2z"/>
<path d="M2138 1034 c-2 -1 -46 -5 -99 -9 -53 -3 -110 -8 -125 -10 -28 -3
-226 -18 -251 -18 -7 0 -13 -11 -13 -24 l0 -24 93 6 c50 3 108 8 127 10 19 2
78 6 130 10 98 8 149 12 163 14 14 2 7 48 -8 48 -8 0 -16 -1 -17 -3z"/>
<path d="M859 836 c-2 -2 -33 -6 -69 -10 -92 -9 -260 -27 -290 -31 -14 -2 -41
-4 -60 -4 -47 -2 -64 -13 -55 -40 3 -12 10 -19 13 -17 4 2 39 7 77 10 39 4 86
8 105 11 40 5 113 13 185 20 115 12 125 15 125 41 0 21 -18 32 -31 20z"/>
<path d="M1670 816 c0 -14 6 -26 13 -27 6 0 19 -2 27 -4 8 -1 47 -6 85 -9 99
-10 156 -16 185 -21 14 -2 61 -7 105 -11 44 -3 82 -8 85 -9 3 -2 7 7 8 20 2
26 -8 30 -118 41 -36 3 -78 7 -95 9 -73 9 -125 14 -190 20 -38 3 -78 8 -87 11
-14 4 -18 -1 -18 -20z"/>
</g>
</svg>
